<svg xmlns="http://www.w3.org/2000/svg" viewBox="0 0 308.26 173.58">
  <title>Asset 4</title>
  <g id="Layer_2" data-name="Layer 2">
    <g id="OBJ">
      <g>
        <polygon points="0 0 39.21 39.21 78.42 0 78.42 78.42 0 78.42 0 0"/>
        <path d="M39.21,133.34A39.22,39.22,0,0,1,78.42,94.13H0v78.42H78.42A39.21,39.21,0,0,1,39.21,133.34Z"/>
        <path d="M154.52,54.93H114.37a9.73,9.73,0,0,0,4.23,5,14.4,14.4,0,0,0,7.4,1.74,18.55,18.55,0,0,0,6.39-.95A22.3,22.3,0,0,0,138,57.47L150.51,70q-8.46,9.3-25.25,9.3a41.57,41.57,0,0,1-18.39-3.86A29.12,29.12,0,0,1,94.62,64.76a28.31,28.31,0,0,1-4.34-15.43,28.55,28.55,0,0,1,4.28-15.48,29.4,29.4,0,0,1,11.73-10.62A38.62,38.62,0,0,1,139,22.92a27.4,27.4,0,0,1,11.52,10.25,29.58,29.58,0,0,1,4.28,16.16C154.84,49.68,154.73,51.55,154.52,54.93Zm-37.4-17.22a9.52,9.52,0,0,0-3.17,5.7h18.6a9.77,9.77,0,0,0-3.17-5.65,9.18,9.18,0,0,0-6.13-2.06A9.29,9.29,0,0,0,117.12,37.71Z"/>
        <g>
          <path d="M94.1,94.13H118v78.4H94.1Z"/>
          <path d="M177.68,120.49q8,6.83,8,21v31.07H163.52v-7.61q-4.12,8.67-16.38,8.66a26.16,26.16,0,0,1-11.67-2.37,16.75,16.75,0,0,1-9.77-15.59q0-8.55,6.54-13t19.87-4.44h9.61q-1.16-6.76-10.88-6.76a27.17,27.17,0,0,0-7.92,1.21,22.2,22.2,0,0,0-6.87,3.33l-7.61-15.74a42.05,42.05,0,0,1,12-4.81,58.09,58.09,0,0,1,14-1.74Q169.66,113.68,177.68,120.49Zm-18.81,37.35a8,8,0,0,0,3-4.12v-4h-5.92q-7.29,0-7.29,4.86a4.21,4.21,0,0,0,1.53,3.33,6.2,6.2,0,0,0,4.18,1.32A7.83,7.83,0,0,0,158.87,157.84Z"/>
          <path d="M204.09,172a41.79,41.79,0,0,1-11.62-4.12L199,152.14a34.4,34.4,0,0,0,9.5,3.8,43.77,43.77,0,0,0,10.68,1.37,16.69,16.69,0,0,0,5.76-.68,2.23,2.23,0,0,0,1.63-2.06c0-.92-.69-1.55-2.06-1.91a55.49,55.49,0,0,0-6.71-1,87.82,87.82,0,0,1-12-2.17,18.94,18.94,0,0,1-8.72-5.12q-3.75-3.81-3.75-10.88a16.16,16.16,0,0,1,3.38-10,22.81,22.81,0,0,1,10.09-7.08,44,44,0,0,1,16.11-2.64,67.49,67.49,0,0,1,12.84,1.21,39.16,39.16,0,0,1,10.73,3.54l-6.56,15.74A33.85,33.85,0,0,0,223.21,130q-7.82,0-7.82,2.75c0,.91.71,1.56,2.12,2a47.72,47.72,0,0,0,6.65,1.11,79.76,79.76,0,0,1,12,2.22,19.3,19.3,0,0,1,8.67,5.17q3.75,3.81,3.75,10.89a15.83,15.83,0,0,1-3.38,9.82,22.82,22.82,0,0,1-10.14,7.08,45.13,45.13,0,0,1-16.38,2.64A67.27,67.27,0,0,1,204.09,172Z"/>
          <path d="M263.78,172a41.91,41.91,0,0,1-11.62-4.12l6.55-15.74a34.47,34.47,0,0,0,9.51,3.8,43.69,43.69,0,0,0,10.67,1.37,16.61,16.61,0,0,0,5.76-.68,2.23,2.23,0,0,0,1.63-2.06c0-.92-.68-1.55-2.06-1.91a55.15,55.15,0,0,0-6.71-1,88.1,88.1,0,0,1-12-2.17,18.94,18.94,0,0,1-8.72-5.12Q253,140.51,253,133.44a16.1,16.1,0,0,1,3.39-10,22.7,22.7,0,0,1,10.09-7.08,44,44,0,0,1,16.11-2.64,67.47,67.47,0,0,1,12.83,1.21,39.16,39.16,0,0,1,10.73,3.54l-6.55,15.74A33.89,33.89,0,0,0,282.9,130q-7.81,0-7.81,2.75c0,.91.7,1.56,2.11,2a48.2,48.2,0,0,0,6.66,1.11,80.25,80.25,0,0,1,12,2.22,19.32,19.32,0,0,1,8.66,5.17q3.75,3.81,3.75,10.89a15.83,15.83,0,0,1-3.38,9.82q-3.37,4.44-10.14,7.08a45.13,45.13,0,0,1-16.38,2.64A67.27,67.27,0,0,1,263.78,172Z"/>
        </g>
      </g>
    </g>
  </g>
</svg>
